<?xml version="1.0" standalone="no"?>
<!DOCTYPE svg PUBLIC "-//W3C//DTD SVG 20010904//EN"
 "http://www.w3.org/TR/2001/REC-SVG-20010904/DTD/svg10.dtd">
<svg version="1.0" xmlns="http://www.w3.org/2000/svg"
 width="700.000000pt" height="700.000000pt" viewBox="0 0 700.000000 700.000000"
 preserveAspectRatio="xMidYMid meet">
<metadata>
Created by potrace 1.14, written by Peter Selinger 2001-2017
</metadata>
<g transform="translate(0.000000,700.000000) scale(0.100000,-0.100000)"
fill="#000000" stroke="none">
<path d="M3278 6995 c-2 -1 -41 -5 -88 -9 -47 -4 -96 -8 -110 -10 -14 -2 -46
-7 -71 -10 -1066 -146 -2039 -813 -2566 -1761 -159 -287 -309 -677 -358 -936
-3 -13 -12 -58 -20 -99 -8 -41 -17 -89 -20 -105 -2 -17 -7 -48 -10 -70 -23
-152 -30 -277 -30 -505 1 -241 4 -295 40 -555 17 -122 78 -372 130 -530 92
-277 206 -515 388 -810 56 -90 253 -348 322 -421 235 -248 374 -373 585 -524
273 -195 609 -367 920 -469 119 -39 324 -94 393 -106 18 -4 50 -10 72 -15 38
-8 76 -14 161 -26 22 -3 53 -7 69 -9 86 -13 242 -20 425 -20 271 0 402 12 665
60 63 11 174 38 275 67 1120 315 2015 1174 2374 2276 72 222 119 432 152 682
18 142 26 531 13 680 -12 138 -25 248 -34 280 -2 8 -7 35 -10 60 -8 57 -53
267 -65 300 -5 14 -19 59 -31 100 -122 418 -336 826 -619 1178 -101 125 -90
113 -221 248 -114 117 -184 183 -259 244 -30 25 -63 53 -74 62 -104 94 -439
304 -641 403 -314 153 -715 279 -985 311 -25 3 -52 7 -60 9 -8 3 -42 7 -75 10
-33 4 -76 9 -95 11 -37 6 -536 14 -542 9z m247 -151 c51 -65 143 -211 182
-287 42 -84 109 -269 119 -326 3 -14 7 -33 9 -41 5 -15 7 -30 25 -150 9 -62 7
-413 -3 -455 -4 -18 -8 -42 -23 -155 -3 -19 -7 -42 -9 -50 -2 -8 -7 -30 -10
-48 -8 -46 -43 -199 -57 -245 l-11 -37 -32 72 c-62 141 -125 260 -259 481
-150 250 -192 329 -229 434 -66 181 -88 334 -90 610 -1 105 0 194 3 196 3 3
50 9 105 13 55 3 101 7 102 8 2 2 39 2 83 1 66 -1 83 -5 95 -21z m370 0 c64
-7 157 -23 162 -28 2 -2 6 -50 8 -107 2 -57 6 -115 9 -129 3 -14 9 -41 12 -60
3 -19 13 -62 21 -95 8 -33 17 -67 18 -75 2 -8 17 -67 34 -130 24 -97 43 -193
44 -235 0 -6 -29 -49 -65 -95 -36 -47 -80 -109 -98 -137 -17 -29 -33 -53 -35
-53 -2 0 -3 55 -3 123 0 68 -3 146 -6 175 -3 29 -9 76 -12 105 -21 204 -122
477 -251 680 -24 37 -43 70 -43 73 0 6 86 1 205 -12z m-890 -224 c2 -113 6
-216 8 -230 3 -14 8 -50 11 -80 4 -30 12 -75 18 -100 5 -25 12 -56 14 -70 10
-54 59 -189 101 -279 38 -82 170 -310 255 -440 33 -52 188 -360 207 -411 7
-19 17 -44 22 -55 4 -11 17 -42 27 -70 l18 -50 -31 -95 -32 -95 -18 40 c-46
97 -161 279 -249 395 -89 116 -111 145 -116 150 -3 3 -25 30 -50 60 -25 30
-47 57 -50 60 -3 3 -30 34 -60 70 -30 36 -57 67 -60 70 -23 23 -120 144 -182
227 -158 211 -235 368 -277 568 -15 73 -7 306 14 388 l17 67 52 15 c92 26 326
74 349 71 4 -1 10 -93 12 -206z m1335 140 c63 -16 135 -36 160 -44 l45 -14 -3
-48 c-3 -61 -53 -224 -97 -318 -40 -86 -120 -212 -127 -200 -3 5 -9 27 -13 49
-10 48 -4 26 -54 215 -22 85 -43 182 -47 215 -9 75 -12 158 -7 168 6 11 20 9
143 -23z m-1909 -137 c-39 -227 -1 -465 106 -678 99 -197 168 -289 596 -795
124 -146 291 -398 359 -540 59 -123 68 -149 58 -176 -10 -25 -12 -23 -78 68
-142 200 -382 457 -632 678 -46 41 -91 82 -100 90 -9 8 -56 51 -106 95 -361
324 -542 556 -628 807 -37 107 -62 245 -57 305 1 17 354 181 394 184 7 0 30 9
52 18 22 10 42 17 44 15 1 -1 -2 -33 -8 -71z m2329 0 c19 -7 48 -19 65 -26 16
-7 87 -40 157 -74 l128 -62 -26 -73 c-51 -145 -155 -327 -258 -453 -68 -84
-243 -253 -396 -384 -303 -258 -327 -279 -459 -406 -46 -44 -81 -72 -78 -63 3
9 15 55 26 101 31 131 146 368 260 535 22 33 80 111 129 173 243 312 301 425
367 719 2 8 4 21 4 28 1 14 17 11 81 -15z m-2935 -278 c17 -129 80 -308 155
-438 94 -165 311 -416 520 -602 395 -352 631 -583 761 -745 77 -95 190 -259
209 -302 9 -19 -5 -68 -74 -269 l-84 -247 -17 62 c-79 280 -194 495 -367 685
-78 85 -201 191 -303 260 -106 73 -291 167 -390 200 -53 17 -62 18 -87 5 -15
-8 -30 -24 -32 -37 -22 -102 -29 -649 -10 -807 7 -63 16 -128 19 -145 61 -324
161 -530 355 -726 113 -115 191 -174 301 -229 103 -52 253 -100 314 -100 26 0
27 -1 21 -42 -26 -178 -40 -400 -39 -643 0 -153 8 -383 17 -490 15 -160 18
-193 21 -220 5 -36 3 -33 -66 90 -156 276 -435 641 -699 916 -8 9 -87 91 -175
183 l-159 167 -2 367 c0 202 -3 381 -7 397 -3 17 -8 59 -12 95 -5 58 -14 109
-45 285 -13 70 -53 225 -84 322 -77 240 -166 417 -434 865 -165 276 -265 503
-286 648 -6 44 -6 46 46 96 50 47 110 100 172 152 128 107 435 315 448 304 4
-4 10 -29 13 -57z m3577 -66 c47 -32 89 -63 92 -68 18 -28 -132 -356 -231
-506 -155 -234 -346 -432 -623 -644 -78 -61 -338 -231 -561 -370 -119 -73
-253 -160 -297 -192 -78 -55 -98 -58 -72 -11 5 9 28 78 52 152 46 148 48 151
188 295 136 140 258 252 445 410 278 235 443 393 546 522 124 155 196 285 280
501 l9 22 42 -26 c24 -15 82 -53 130 -85z m352 -279 c114 -104 336 -336 336
-350 0 -3 -39 -23 -87 -45 -107 -49 -295 -160 -382 -227 -130 -98 -210 -174
-366 -351 -6 -7 -32 -41 -57 -77 -155 -220 -271 -467 -423 -905 -164 -470
-274 -727 -396 -924 l-42 -68 -156 -63 c-494 -200 -772 -374 -936 -587 l-37
-48 6 115 c8 142 14 222 21 278 3 23 8 63 11 90 7 62 32 230 39 262 2 14 9 48
15 75 6 28 12 59 14 70 36 184 242 838 286 910 28 44 134 145 220 207 88 64
171 118 455 295 441 276 676 460 886 696 184 208 356 489 435 714 l18 52 46
-37 c25 -20 67 -57 94 -82z m-4691 -347 c41 -127 117 -285 222 -463 38 -63
111 -187 162 -275 267 -452 380 -800 429 -1322 7 -70 12 -514 6 -551 l-4 -32
-36 41 c-20 23 -37 46 -38 52 -25 164 -84 404 -139 566 -103 308 -186 471
-489 959 -59 95 -132 222 -161 281 -49 97 -117 277 -128 341 -3 14 -8 36 -11
50 -10 44 -16 83 -22 160 -4 41 -8 82 -9 90 -1 8 16 38 39 65 68 84 131 155
136 155 3 0 22 -53 43 -117z m5146 -153 l32 -40 -58 -52 c-153 -140 -347 -341
-439 -457 -10 -13 -24 -28 -30 -35 -50 -54 -249 -343 -309 -451 -16 -27 -47
-84 -71 -127 -24 -42 -130 -253 -238 -470 -107 -216 -227 -448 -268 -515 l-73
-123 -100 -44 c-55 -25 -101 -43 -103 -41 -2 2 14 36 35 77 84 157 188 417
328 818 93 265 223 574 262 621 7 8 13 19 13 24 0 17 150 234 207 300 179 207
364 348 632 483 80 39 145 72 146 72 1 0 16 -18 34 -40z m-5479 -140 c0 -39
34 -184 66 -279 53 -160 132 -311 310 -596 294 -469 425 -759 514 -1140 l19
-80 -47 50 c-98 106 -205 229 -277 320 -22 28 -42 52 -45 55 -17 14 -196 278
-245 360 -207 350 -325 717 -350 1090 -3 52 -8 111 -9 130 -3 25 4 49 21 78
29 49 43 53 43 12z m5642 -101 c56 -87 56 -89 -4 -254 -82 -226 -236 -510
-389 -715 -178 -239 -446 -516 -679 -700 -24 -19 -58 -46 -75 -60 -50 -42
-179 -137 -220 -162 -17 -11 467 952 537 1067 83 138 193 294 294 422 92 115
460 486 477 480 7 -2 33 -37 59 -78z m-5823 -220 c0 -28 3 -54 5 -58 3 -3 7
-27 10 -51 3 -25 12 -79 21 -120 9 -41 18 -84 21 -95 14 -70 81 -272 129 -386
58 -137 237 -468 265 -489 4 -3 12 -15 18 -26 12 -22 180 -248 219 -294 11
-14 49 -59 84 -100 84 -100 232 -263 349 -383 52 -54 97 -101 100 -104 5 -5
-19 -2 -140 13 -78 10 -242 51 -335 84 -284 100 -524 267 -710 494 -52 62
-115 154 -115 165 0 5 -4 11 -9 13 -14 5 -114 204 -151 298 -50 130 -81 232
-82 266 0 46 77 302 139 459 58 147 162 365 173 365 4 0 8 -23 9 -51z m6085
-307 c58 -147 138 -409 151 -494 6 -43 3 -54 -30 -115 -111 -204 -296 -374
-518 -477 -117 -54 -344 -127 -466 -151 -13 -2 -30 -7 -39 -9 -31 -10 -455
-96 -458 -94 -1 2 46 42 105 90 138 111 208 175 357 323 358 357 587 707 764
1170 l12 30 33 -65 c18 -36 58 -130 89 -208z m-4271 17 c99 -49 202 -115 292
-187 109 -88 102 -76 110 -206 3 -64 8 -126 10 -138 2 -13 6 -43 9 -68 24
-209 72 -379 196 -690 75 -188 114 -300 106 -307 -1 -2 -31 27 -66 63 -111
119 -184 246 -330 579 -131 297 -233 460 -398 628 l-66 68 3 102 c4 99 7 169
10 195 1 17 25 10 124 -39z m8 -638 c77 -113 118 -192 199 -376 142 -324 229
-477 341 -600 l52 -56 -53 20 c-180 68 -378 245 -498 443 -98 163 -160 378
-177 623 -4 44 -8 94 -10 110 l-4 30 40 -45 c22 -25 72 -92 110 -149z m635 42
c137 -240 198 -461 198 -713 0 -61 -5 -113 -12 -125 -6 -11 -12 -14 -12 -7 0
8 -27 82 -61 165 -79 197 -113 291 -139 383 -20 72 -24 87 -35 144 -3 14 -7
34 -9 45 -7 38 -25 160 -30 210 l-5 50 28 -32 c15 -18 50 -72 77 -120z m3839
-271 c15 -174 18 -240 19 -367 0 -132 -9 -318 -19 -395 -2 -19 -7 -55 -10 -80
-3 -25 -7 -52 -9 -60 -1 -8 -10 -59 -20 -112 l-18 -97 -117 1 c-291 2 -530
-52 -773 -175 -333 -168 -586 -413 -953 -922 -190 -265 -237 -325 -249 -325
-32 0 -274 -82 -406 -137 -362 -152 -627 -409 -786 -760 -24 -54 -44 -95 -44
-90 0 4 -18 87 -40 185 -57 256 -67 310 -61 320 3 5 36 22 73 39 61 29 209
118 252 153 239 195 398 419 480 680 27 84 28 87 51 220 18 98 15 397 -3 443
-19 44 -52 54 -120 32 -75 -23 -220 -92 -307 -145 -227 -138 -417 -345 -510
-553 -17 -37 -33 -67 -37 -67 -5 0 -8 17 -9 38 -1 20 -2 48 -3 62 -16 156 -16
245 -1 298 67 235 257 432 587 607 132 69 246 120 565 249 277 112 333 136
460 198 87 42 387 121 713 187 222 46 428 97 550 137 201 67 399 179 538 305
49 46 143 155 168 197 17 30 19 31 26 12 4 -12 10 -47 13 -78z m-6627 -10 c93
-216 215 -396 382 -562 63 -63 158 -145 210 -182 168 -120 411 -229 625 -282
111 -28 231 -45 365 -52 l105 -5 145 -148 c414 -421 716 -797 878 -1093 18
-32 45 -82 61 -110 104 -190 209 -489 261 -738 17 -85 34 -164 37 -175 3 -12
-10 -2 -33 25 -204 237 -416 383 -720 495 l-100 37 -2 37 c-6 89 -66 237 -136
334 -189 263 -473 410 -986 511 -113 22 -152 29 -230 42 -14 3 -56 11 -95 20
-38 8 -80 16 -92 19 -13 2 -74 17 -136 34 -214 57 -349 129 -395 211 -30 55
-123 339 -138 425 -3 16 -10 50 -15 75 -12 48 -14 60 -28 148 -32 186 -45 354
-45 552 0 146 10 333 19 380 3 14 6 42 7 63 1 20 4 37 7 37 4 0 25 -44 49 -98z
m6527 -1264 c-11 -54 -94 -297 -132 -384 l-34 -82 -82 1 c-506 3 -1003 -232
-1354 -638 -51 -60 -53 -61 -134 -78 -45 -9 -83 -16 -85 -14 -5 4 287 400 374
506 113 138 296 320 402 400 233 174 489 281 740 308 30 3 56 7 58 8 2 2 60 4
129 4 l125 2 -7 -33z m-2651 -449 c0 -114 -4 -159 -20 -244 -5 -30 -10 -32
-132 -68 -213 -64 -393 -169 -545 -318 -43 -42 -76 -69 -73 -60 3 9 13 45 22
81 22 81 71 184 132 275 60 90 205 235 306 304 89 61 284 163 300 158 7 -2 11
-48 10 -128z m-3500 -169 c115 -40 288 -82 486 -116 554 -97 833 -206 1024
-400 98 -100 185 -252 186 -326 0 -26 -2 -27 -26 -18 -26 10 -358 95 -404 103
-14 3 -63 15 -110 27 -47 12 -92 23 -101 25 -21 4 -137 38 -264 77 -472 145
-729 319 -876 592 -35 66 -39 78 -23 73 10 -3 59 -20 108 -37z m5903 -21 c-48
-98 -381 -263 -744 -369 -76 -22 -151 -43 -166 -46 -16 -2 -68 -14 -115 -25
-48 -12 -103 -23 -122 -25 l-35 -5 65 61 c252 237 595 401 910 436 30 4 56 8
58 9 1 1 40 3 86 4 l84 2 -21 -42z m-2477 -246 c0 -3 -22 -52 -50 -107 -111
-225 -301 -421 -538 -556 -98 -56 -110 -56 -113 -5 0 11 -2 29 -5 40 -18 84
-16 100 15 146 147 219 360 383 606 465 77 25 85 27 85 17z m2248 -134 c-102
-148 -224 -295 -361 -436 l-129 -132 -37 14 c-122 47 -253 56 -601 40 -199 -9
-346 -9 -438 0 -64 6 -204 39 -230 54 -25 14 391 135 618 180 30 6 64 13 75
16 11 2 83 18 160 34 113 24 270 60 330 75 6 2 24 6 40 11 184 47 428 133 553
195 42 21 78 39 80 39 2 1 -25 -40 -60 -90z m-5248 -237 c147 -65 467 -167
720 -227 85 -21 198 -49 250 -62 52 -14 101 -25 108 -26 6 0 12 -3 12 -7 0 -7
-89 -24 -190 -37 -74 -10 -299 -10 -380 0 -117 13 -164 24 -299 69 -76 26
-102 41 -140 78 -52 51 -178 192 -230 258 l-34 44 69 -35 c38 -19 89 -44 114
-55z m3345 -318 c152 -79 305 -104 610 -97 353 9 569 8 610 -1 22 -4 46 -8 53
-9 26 -1 2 -25 -120 -117 -398 -300 -843 -501 -1348 -608 -98 -21 -136 -28
-218 -38 -26 -3 -58 -7 -72 -9 -35 -5 -236 -18 -290 -19 -42 -1 -45 0 -42 24
7 52 74 235 114 313 86 165 223 327 373 442 64 49 253 158 265 152 3 -1 32
-16 65 -33z m-1939 -90 c27 -9 53 -20 57 -24 16 -14 -122 -104 -218 -142 -148
-59 -227 -73 -410 -72 -123 1 -150 4 -222 28 -72 23 -149 67 -223 126 l-25 20
45 -6 c25 -3 65 -10 90 -15 49 -9 403 -5 460 6 148 28 243 50 295 70 75 28 89
29 151 9z m294 -122 c237 -134 443 -337 590 -582 27 -46 50 -88 50 -93 0 -17
-414 23 -502 49 -10 3 -30 7 -45 10 -134 23 -397 103 -568 171 -126 51 -375
172 -375 182 0 4 19 7 43 7 217 2 453 85 632 223 98 76 99 76 175 33z"/>
</g>
</svg>
